<svg xmlns="http://www.w3.org/2000/svg" xmlns:xlink="http://www.w3.org/1999/xlink" version="1.1" id="Layer_1" x="0px" y="0px" width="100%" viewBox="0 0 384 384" enable-background="new 0 0 384 384" xml:space="preserve">
<path fill="#ffffff" opacity="1.000000" stroke="none" d=" M212.000000,385.000000   C141.333344,385.000000 71.166695,385.000000 1.000028,385.000000   C1.000019,257.000031 1.000019,129.000076 1.000009,1.000080   C128.999939,1.000053 256.999878,1.000053 384.999878,1.000027   C384.999908,128.999924 384.999908,256.999847 384.999939,384.999878   C327.500000,385.000000 270.000000,385.000000 212.000000,385.000000  M168.189804,321.367828   C176.326401,334.599976 184.462997,347.832153 193.215240,362.065491   C209.091110,336.332703 224.244766,311.770538 239.815826,286.531799   C249.874603,295.828827 259.298676,304.539185 268.896271,313.409943   C269.952454,312.104126 270.536957,311.519531 270.961761,310.835754   C278.695953,298.385773 286.533508,285.997192 294.055664,273.420044   C296.329498,269.618164 298.185181,269.580872 301.365326,272.240509   C309.797516,279.292511 318.413300,286.125153 326.964447,293.034668   C328.432617,294.220978 329.762360,295.752808 332.091217,295.633118   C331.976440,294.816162 331.972778,294.308594 331.825165,293.847076   C331.573090,293.058777 331.271667,292.280182 330.920380,291.530579   C314.203156,255.861145 308.066772,218.025223 307.857758,178.974014   C307.775726,163.643692 308.112396,148.296158 307.485962,132.988052   C306.893494,118.509834 302.388916,104.880058 295.916473,91.957932   C293.720886,87.574486 292.419769,87.627197 289.215881,91.534180   C285.941803,95.526718 282.992096,99.871819 279.253448,103.371407   C275.819000,106.586243 275.596191,109.470726 277.448364,113.449997   C280.889496,120.842819 282.514404,128.672577 280.808960,136.781708   C277.081512,154.505112 264.987061,163.321365 248.136780,166.937347   C239.131180,168.869904 239.348969,168.912613 239.271484,178.074432   C239.237396,182.105621 240.604660,184.575485 244.081390,186.485901   C251.233276,190.415771 258.271301,194.559021 265.273346,198.752777   C268.800140,200.865067 272.764221,202.344604 276.065979,205.781219   C271.626343,209.403305 266.813934,212.140732 261.840271,214.194687   C240.791687,222.887146 228.629135,239.356018 220.266144,259.673248   C212.773026,277.877106 206.918442,296.591644 201.330536,315.422974   C198.941956,323.472504 197.128113,331.724548 193.790176,339.654419   C191.134415,338.169281 191.131592,335.857178 190.535706,333.843018   C183.312759,309.428986 176.630630,284.846252 166.912933,261.234833   C158.769226,241.447830 147.859039,224.315140 127.047379,215.449005   C121.368118,213.029526 115.709808,210.064285 110.902771,206.176712   C111.735291,203.615433 113.675438,203.138565 115.195145,202.251144   C124.255943,196.960144 133.290710,191.618378 142.468079,186.535355   C148.881775,182.983032 147.608963,176.932663 147.463776,171.514725   C147.332855,166.629059 142.684448,167.808853 139.702713,167.300262   C112.875214,162.724136 96.798576,139.244522 109.556129,111.935326   C110.352448,110.230698 111.231316,108.537994 109.799484,106.813171   C104.619728,100.573502 99.396095,94.370247 94.314163,88.302666   C91.938515,88.792984 91.343491,90.483810 90.638008,91.920364   C83.283829,106.895149 78.779655,122.652519 78.497383,139.396790   C78.244614,154.390656 78.404999,169.391632 78.394539,184.389465   C78.373459,214.612045 73.622185,244.030487 63.450470,272.532379   C60.460991,280.909149 56.846981,289.035339 53.390480,297.320435   C64.268036,289.095337 74.840042,280.726929 85.157272,272.055389   C88.513626,269.234406 90.253807,269.614716 92.354599,273.316772   C95.886436,279.540619 99.807220,285.544495 103.589256,291.625427   C108.035797,298.774750 112.508873,305.907593 117.359543,313.670288   C127.299294,304.452393 136.622162,295.806549 146.626877,286.528412   C154.008011,298.465546 160.900787,309.612854 168.189804,321.367828  M253.384644,101.863190   C269.893768,87.973595 285.193298,72.991455 296.208618,54.177368   C297.119812,52.621044 298.693787,51.044193 297.568298,48.837357   C294.970428,49.012829 293.641449,50.945114 291.830872,52.019394   C289.830414,53.206337 287.889313,54.511677 285.816406,55.554886   C277.959412,59.508938 276.812317,59.365307 270.488403,53.497166   C250.104782,34.582592 225.763458,24.691578 198.248764,23.565149   C166.990829,22.285477 139.298706,32.053448 116.017052,53.393456   C109.539223,59.331062 108.166977,59.404537 100.254318,55.389324   C95.589958,53.022430 91.700653,49.478615 86.519531,45.988865   C87.416466,48.338589 87.771873,49.633690 88.382965,50.794147   C89.622398,53.147827 90.852585,55.528870 92.343285,57.724327   C112.208290,86.980843 138.498581,109.025696 169.182373,126.153671   C172.347473,127.920456 174.986237,127.435226 178.033234,125.768951   C188.147797,120.237747 198.510574,120.117950 208.486069,125.902908   C212.109619,128.004272 214.829010,127.581451 218.122131,125.748718   C230.372528,118.930954 241.975952,111.176773 253.384644,101.863190  M160.508972,199.106384   C157.347839,201.070908 153.750473,202.436111 151.351440,205.361603   C151.641434,205.957764 151.711670,206.339432 151.940826,206.531204   C152.831131,207.276215 153.749298,207.992920 154.697464,208.663025   C163.549393,214.919296 170.420059,222.943542 175.805252,232.292786   C182.241348,243.466476 186.454575,255.549225 190.336578,267.771820   C191.042969,269.995880 191.439896,272.438812 193.934387,274.856049   C202.235428,247.954941 210.598846,221.873398 235.023575,206.172394   C234.034286,203.559570 232.694397,202.783875 231.317612,202.264267   C221.664688,198.620987 217.738251,191.791153 219.609070,181.627487   C219.727554,180.983780 219.674088,180.293747 219.611755,179.633636   C218.681793,169.786255 217.027756,160.193008 210.773087,152.021332   C199.920547,137.842529 185.844757,138.072739 175.410477,152.489990   C167.703766,163.138504 166.985718,175.363007 167.098434,187.754410   C167.143570,192.719086 165.971436,196.608719 160.508972,199.106384  M260.452148,135.772949   C260.832733,134.165543 261.394806,132.575653 261.552063,130.946701   C261.798553,128.393173 261.451843,125.653114 259.240753,124.194466   C256.979797,122.702911 255.307571,125.090431 253.585587,126.194923   C247.716217,129.959534 241.880371,133.777954 236.081757,137.650757   C232.855896,139.805252 228.906357,140.898300 226.144211,143.953018   C236.474442,151.748672 253.848053,147.774216 260.452148,135.772949  M159.737808,143.730957   C149.233994,136.896683 138.732117,130.059372 128.212402,123.249649   C128.001282,123.112984 127.581688,123.298378 127.260399,123.343086   C123.112930,128.832870 125.638329,137.830826 130.123169,141.790848   C137.809723,148.577866 152.228561,149.912079 159.737808,143.730957  z"/>
</svg>