<svg width="28" height="28" fill="none" xmlns="http://www.w3.org/2000/svg">
    <path d="M22.873 11.108v8.087l-8.948 5.193-8.952-5.193V8.809l8.956-5.2 
    6.877 3.994 1.04-.601-7.917-4.596-9.992 5.798v11.592l9.992 
    5.798 9.991-5.798v-9.289l-1.047.601z" 
    fill="url(#gray_gradient)"/>
    <path d="M11.423 19.202H9.927v-5.048h4.99c.471-.004.924-.196 
    1.257-.536a1.82 1.82 0 00.521-1.267 1.749 1.749 0 00-.525-1.26 1.771 
    1.771 0 00-.572-.392 1.68 1.68 0 00-.68-.134h-4.99V9.03h4.993a3.312 
    3.312 0 012.329.978c.619.622.966 1.463.974 2.343a3.25 3.25 0 01-.583 
    1.879 3.277 3.277 0 01-1.438 1.184c-.58.185-1.18.275-1.785.272h-2.995v3.516z" 
    fill="url(#gray_gradient)"/>
    <path d="M18.187 19.076H16.44l-1.347-2.362a5.624 
    5.624 0 001.561-.322l1.532 2.684z" 
    fill="url(#gray_gradient)"/>
    <path d="M21.83 9.428l1.032.576 1.032-.576v-1.22l-1.032-.602-1.032.602v1.22z" 
    fill="url(#gray_gradient)"/>
    <defs>
        <linearGradient id="gray_gradient" 
        x1="0" y1="0" x2="28" y2="28" gradientUnits="userSpaceOnUse">
            <stop offset="0%" stop-color="#ffffff" />
            <stop offset="100%" stop-color="rgba(255, 255, 255, 0.8)" />
        </linearGradient>
    </defs>
</svg>
