<svg xmlns="http://www.w3.org/2000/svg" xmlns:xlink="http://www.w3.org/1999/xlink" version="1.1" id="Layer_1" x="0px" y="0px" width="100%" viewBox="0 0 800 800" enable-background="new 0 0 800 800" xml:space="preserve">
    <path fill="#ffffff" opacity="1.000000" stroke="none" d="M506.883301,703.858643 C468.301392,718.278625 428.781769,722.940002 388.205414,720.295044 C343.283722,717.366882 300.569336,705.990356 260.189240,686.328796 C201.715225,657.856995 155.163025,616.483032 123.812233,558.793213 C105.154945,524.461182 92.856468,488.064606 87.364540,449.465973 C82.763100,417.125946 83.228607,384.776794 88.630531,352.460754 C98.425064,293.866699 122.521980,241.912781 161.032043,196.849884 C201.075653,149.992477 250.825714,117.512024 309.677673,99.017487 C347.307068,87.192245 385.900085,82.586060 425.115753,85.347679 C497.927734,90.475212 562.223022,116.895180 616.931091,165.449890 C659.445740,203.182678 687.944519,250.079422 705.272644,304.006409 C716.952026,340.353821 722.338135,377.626312 720.842102,415.727203 C718.221069,482.481110 697.628296,542.734497 654.502380,594.528870 C651.001587,598.733276 647.173523,602.665161 643.002441,607.270325 C637.527649,601.742615 632.233582,596.566711 627.127380,591.211792 C607.701721,570.840088 588.423828,550.326233 568.856689,530.091858 C565.863342,526.996460 565.864380,525.069580 568.190979,521.727661 C585.721863,496.545837 598.014587,469.066406 603.758728,438.815369 C608.798645,412.272919 608.081604,385.810150 602.405701,359.445831 C594.116272,320.941711 576.875916,287.124817 549.551758,258.588867 C522.119080,229.939575 489.179016,210.558395 450.705231,201.127014 C400.503448,188.820679 352.000214,194.256287 306.196442,218.278992 C256.070343,244.568604 222.159058,285.032562 204.974655,339.075348 C191.917770,380.137573 192.193787,421.420776 205.144821,462.435791 C221.401962,513.920959 253.004166,553.342651 300.018188,580.029358 C332.792175,598.632935 368.260925,606.941467 405.892639,605.890991 C424.639496,605.367737 442.986298,602.153503 460.860077,596.489685 C479.015533,590.736694 493.112671,595.976868 505.944336,609.937073 C523.505798,629.043091 542.430176,646.898254 560.850403,665.209167 C562.360229,666.710022 564.482666,667.594604 567.087219,669.253967 C547.859619,685.006775 528.294556,695.637695 506.883301,703.858643 z"/>
    <path fill="#ffffff" opacity="1.000000" stroke="none" d="M416.296600,275.851532 C438.780670,277.918152 458.932404,286.225250 476.771698,299.726959 C505.832642,321.721802 522.910706,351.107513 526.702271,387.332764 C530.547668,424.071228 520.205811,457.047394 495.511475,484.669830 C471.391937,511.649261 440.750732,526.184021 404.446625,526.892517 C342.647858,528.098572 291.790161,487.886566 277.764404,427.589813 C264.746735,371.626709 294.211670,311.092072 346.846985,286.995361 C348.012146,286.640137 348.509766,286.323334 349.007385,286.006531 C349.007385,286.006531 349.265533,285.827576 349.842407,285.885498 C358.569275,283.483734 366.709045,280.989319 374.873871,278.580048 C378.535553,277.499573 382.247559,276.589539 385.936707,275.602142 C386.718811,275.457306 387.500885,275.312469 389.004395,275.455292 C397.456390,275.588348 405.186920,275.433746 412.917480,275.279144 C413.438141,275.283966 413.958832,275.288818 415.003296,275.533356 C415.527069,275.773071 415.905548,275.873138 415.905548,275.873138 C415.905548,275.873138 416.296600,275.851532 416.296600,275.851532 z"/>
    <path fill="#ffffff" opacity="1.000000" stroke="none" d="M385.561646,275.508331 C382.247559,276.589539 378.535553,277.499573 374.873871,278.580048 C366.709045,280.989319 358.569275,283.483734 349.998840,285.899750 C360.298767,282.553131 371.014893,279.236237 381.746002,275.968475 C382.846985,275.633209 384.037567,275.592102 385.561646,275.508331 z"/>
    <path fill="#ffffff" opacity="1.000000" stroke="none" d="M412.484497,275.167358 C405.186920,275.433746 397.456390,275.588348 389.403137,275.501495 C396.737488,275.191864 404.394501,275.123718 412.484497,275.167358 z"/>
    <path fill="#ffffff" opacity="1.000000" stroke="none" d="M348.697876,286.006592 C348.509766,286.323334 348.012146,286.640137 347.201233,286.953186 C347.388062,286.635162 347.888214,286.320923 348.697876,286.006592 z"/>
    <path fill="#ffffff" opacity="1.000000" stroke="none" d="M416.148987,275.703644 C416.296600,275.851532 415.905548,275.873138 415.905548,275.873138 C415.905548,275.873138 415.527069,275.773071 415.374603,275.660919 C415.483246,275.373047 415.742981,275.375397 416.148987,275.703644 z"/>
</svg>
